<svg width="30" height="30" viewBox="0 0 30 30" fill="none" xmlns="http://www.w3.org/2000/svg">
<g clip-path="url(#clip0_153_113)">
<path d="M25.7775 0H4.2216C3.10183 0.00023867 2.028 0.445255 1.23632 1.23717C0.444631 2.02908 -7.95723e-05 3.10303 1.06795e-08 4.2228V25.7778C7.95354e-05 26.8975 0.44486 27.9713 1.23653 28.763C2.0282 29.5548 3.10193 29.9998 4.2216 30H14.0316V19.05H10.3239V14.7786H14.0316V11.6328C14.0316 9.8496 14.5247 8.4652 15.5109 7.4796C16.4971 6.494 17.8346 6.0002 19.5234 5.9982C21.2148 5.9982 22.3098 6.0639 22.8102 6.1875V9.99H20.5575C19.7437 9.99 19.1881 10.1625 18.8907 10.5075C18.5623 10.9541 18.4047 11.5036 18.4464 12.0564V14.7789H22.6716L22.1082 19.05H18.4464V30H25.7775C26.8974 30 27.9714 29.5551 28.7633 28.7633C29.5551 27.9714 30 26.8974 30 25.7775V4.2228C30 3.66827 29.8909 3.11916 29.6787 2.60683C29.4665 2.0945 29.1555 1.62897 28.7634 1.23685C28.3713 0.844721 27.9058 0.533667 27.3935 0.321447C26.8811 0.109228 26.332 -1.39959e-09 25.7775 0Z" fill="#F4F4F4"/>
</g>
<defs>
<clipPath id="clip0_153_113">
<rect width="30" height="30" fill="white"/>
</clipPath>
</defs>
</svg>
