<svg width="30" height="30" viewBox="0 0 30 30" fill="none" xmlns="http://www.w3.org/2000/svg">
<g clip-path="url(#clip0_153_106)">
<path d="M15 7.19727C13.4688 7.19732 11.972 7.65142 10.699 8.50214C9.42586 9.35286 8.43362 10.562 7.84771 11.9766C7.2618 13.3912 7.10853 14.9479 7.40728 16.4496C7.70603 17.9513 8.44339 19.3308 9.52611 20.4135C10.6088 21.4961 11.9883 22.2334 13.49 22.5321C14.9918 22.8308 16.5484 22.6775 17.963 22.0915C19.3776 21.5056 20.5867 20.5133 21.4374 19.2401C22.288 17.967 22.7421 16.4702 22.7421 14.9391C22.7381 12.887 21.9212 10.9201 20.4701 9.46906C19.019 8.01804 17.0521 7.20115 15 7.19727ZM15 19.899C14.0191 19.8989 13.0603 19.608 12.2447 19.063C11.4291 18.518 10.7935 17.7434 10.4182 16.8372C10.0428 15.9309 9.94462 14.9338 10.136 13.9717C10.3274 13.0097 10.7997 12.126 11.4933 11.4324C12.1869 10.7388 13.0706 10.2665 14.0326 10.0751C14.9947 9.8837 15.9919 9.98189 16.8981 10.3572C17.8043 10.7326 18.5789 11.3682 19.1239 12.1838C19.6689 12.9993 19.9598 13.9582 19.9599 14.9391C19.954 16.2527 19.4296 17.5109 18.5007 18.4398C17.5718 19.3687 16.3136 19.8931 15 19.899Z" fill="#F4F4F4"/>
<path d="M23.0445 8.76992C24.0133 8.76992 24.7986 7.98458 24.7986 7.01582C24.7986 6.04706 24.0133 5.26172 23.0445 5.26172C22.0757 5.26172 21.2904 6.04706 21.2904 7.01582C21.2904 7.98458 22.0757 8.76992 23.0445 8.76992Z" fill="#F4F4F4"/>
<path d="M27.5805 2.4798C26.0082 0.8469 23.7702 0 21.2298 0H8.7702C3.5082 0 0 3.5082 0 8.7702V21.1695C0 23.7702 0.8469 26.0082 2.5404 27.6414C4.1736 29.214 6.3504 30.0003 8.8308 30.0003H21.1695C23.7702 30.0003 25.9476 29.1534 27.5202 27.6414C29.1534 26.0688 30 23.8314 30 21.2301V8.7702C30 6.2298 29.1531 4.0524 27.5805 2.4798ZM27.3387 21.2298C27.3387 23.1048 26.6733 24.6168 25.5846 25.6452C24.4959 26.6736 22.9839 27.2178 21.1692 27.2178H8.8305C7.0161 27.2178 5.5038 26.6733 4.4151 25.6452C3.3264 24.5565 2.7819 23.0445 2.7819 21.1695V8.7702C2.7819 6.9558 3.3264 5.4435 4.4151 4.3548C5.4432 3.3267 7.0158 2.7822 8.8305 2.7822H21.2904C23.1048 2.7822 24.6171 3.3267 25.7058 4.4154C26.791 5.6023 27.3761 7.16237 27.339 8.7702L27.3387 21.2298Z" fill="#F4F4F4"/>
</g>
<defs>
<clipPath id="clip0_153_106">
<rect width="30" height="30" fill="white"/>
</clipPath>
</defs>
</svg>
