<?xml version="1.0" encoding="utf-8"?>
<!-- Generator: Adobe Illustrator 27.9.0, SVG Export Plug-In . SVG Version: 6.00 Build 0)  -->
<svg version="1.1" id="Layer_1" xmlns="http://www.w3.org/2000/svg" xmlns:xlink="http://www.w3.org/1999/xlink" x="0px" y="0px"
	 viewBox="0 0 980.16 315.84" style="enable-background:new 0 0 980.16 315.84;" xml:space="preserve">
<style type="text/css">
	.st0{fill:#231916;}
	.st1{fill:#B13B3B;}
</style>
<g>
	<path class="st0" d="M252.12,298.11v-20.5h6.09v5.77h4.82v-5.77h6.09v20.5H252.12z M281.26,315.84v-9.09h-24.73v-5.18h30.82v14.27
		H281.26z M263.03,288.47h-4.82v4.5h4.82V288.47z M281.67,299.52v-9.13h-3.27v9.13h-5.82v-23h5.82v8.18h3.27v-8.86h5.82v23.68
		H281.67z"/>
	<path class="st0" d="M335.23,294.75l-9.41,0.04V277.2h6.04v12.23l3.41-0.05c5.64,0,11.55-0.72,14.68-1.31v5.27
		C347.5,293.89,341.69,294.75,335.23,294.75z M330.09,315.38v-16.36h28.73v16.36H330.09z M352.59,304.25h-16.27v5.91h16.27V304.25z
		 M358.82,289.02v7.95h-6.04v-21.14h6.04v8h5.41v5.18H358.82z"/>
	<path class="st0" d="M421.2,300.29v6.86h-6.23v-6.86h-17.68v-5.18h40v5.18H421.2z M431.34,293.11c-5.45-0.64-10.27-2.59-14.09-6.36
		c-2.41,3.23-8.77,5.72-14,6.36l-3.36-4.41c3.91-0.41,12-2.54,13.73-6.59H401.8v-5.18h31v5.18h-11.78
		c2.77,4.54,11.27,6.23,13.64,6.59L431.34,293.11z M401.98,314.93v-11.09h6.32v5.86h25.5v5.23H401.98z"/>
	<path class="st0" d="M483.63,308.79c-6.91,0-11.45-6.04-11.45-15.13c0-9.13,4.55-15.13,11.45-15.13c7.05,0,11.46,6.09,11.46,15.13
		C495.09,302.66,490.68,308.79,483.63,308.79z M483.67,283.89c-3.36,0-5.54,4.81-5.54,9.73c0,5.04,2.18,9.82,5.54,9.82
		c3.46,0,5.45-4.73,5.45-9.82C489.13,288.66,487.13,283.89,483.67,283.89z M506.22,297.07v18.77h-6.04v-40h6.04v15.59h5.5v5.64
		H506.22z"/>
	<path class="st0" d="M544.51,311.52v-5.22h40v5.22H544.51z M549.47,301.66v-22.55h29.96v5.18h-23.78v3.54h23.59v5.14h-23.59v3.5
		h24.37v5.18H549.47z"/>
	<path class="st0" d="M636.08,300.39c-2.54-1.46-4.86-3.82-7.09-7.05c-1.45,3.05-4.41,6.05-7.13,7.68l-4.45-3.95
		c4.13-2.64,8.36-7.5,8.36-14.36v-5.82h6.5v5.82c0,7.36,4,11,7.72,13.32L636.08,300.39z M626.26,314.93v-12.55h6.14v7.32h24.73v5.23
		H626.26z M641.8,304.29v-14.73h-5.31v-5.36h5.31v-7.68h5.87v27.77H641.8z M650.39,305.2v-29.37h5.82v29.37H650.39z"/>
	<path class="st0" d="M709.46,307.66c-5.09,0.32-14,0.27-14.46,0.27v-28.36h19v5.23H701.1v6h12.41v5.27H701.1v6.64
		c0.18,0,4,0,8.32-0.23c2.86-0.18,5.82-0.55,8.04-0.82v5.13C715.1,307.06,712.28,307.48,709.46,307.66z M721.96,315.84v-20.09H716
		v-5.32h5.96v-14.59h6.09v40H721.96z"/>
</g>
<path class="st0" d="M144.19,189.42c0,0-0.95-1.58-2.1-2.17c-0.96-0.56-2.98-0.87-3.27-0.87c-0.31,0-1.87,0.07-3.09,0.63
	c-1.27,0.61-2.57,1.85-3.23,3.68l-8.41,23.14c-0.01,0.05-0.06,0.17-0.17,0.17c-0.14,0-0.18-0.17-0.18-0.17l-8.42-23.14
	c-0.65-1.83-1.95-3.07-3.23-3.68c-1.21-0.55-2.43-0.63-3.06-0.63c-1.01-0.04-2.34,0.31-3.32,0.87c-1.46,0.9-2.22,2.21-2.58,3.25
	c-0.37,1-0.42,1.85-0.43,2.35v39.03h11.45v-5.5h-4.99v-33.49c0,0,0-0.06,0.04-0.06c0.07,0,0.07,0.06,0.07,0.06l8.42,23.19
	c0.65,1.83,1.95,3.07,3.25,3.65c1.22,0.61,2.61,0.66,3.15,0.66c0,0,1.6-0.05,2.83-0.66c1.26-0.59,2.58-1.82,3.22-3.65l8.42-23.16
	c0.01-0.02,0.01-0.09,0.07-0.09c0.04,0,0.04,0.09,0.04,0.09v33.47h-4.89v5.5h11.36l-0.02-39.05
	C145.09,192.21,145.01,190.88,144.19,189.42"/>
<path class="st0" d="M25.55,191.69h4.14v33.82c0,0,0.03,0.43-0.53,0.52c-0.55,0.08-0.7-0.17-0.77-0.29l-14.64-35.92v-0.05
	l-0.03-0.06c-0.81-1.92-2.32-3.07-3.64-3.57c-1.27-0.53-3.15-0.6-3.15-0.6c-1.39,0.03-2.67,0.35-3.7,1.01
	c-1.6,0.93-2.4,2.33-2.77,3.4c-0.37,1.02-0.39,1.82-0.39,2.04v39.87h10.28v-5.5H6.51c0,0,0-33.45,0-33.71
	c0-0.23,0.09-0.59,0.64-0.64c0.55-0.02,0.68,0.32,0.68,0.32l14.65,36l0.02,0.04c0.81,1.87,2.3,3.02,3.6,3.5l0,0
	c1.28,0.55,3.15,0.57,3.15,0.57c1.33,0,2.54-0.29,3.58-0.84c1.6-0.86,2.49-2.22,2.88-3.33c0.41-1.06,0.42-1.93,0.42-2.25v-39.81
	H25.55V191.69L25.55,191.69z"/>
<path class="st0" d="M829.56,191.69h4.16v33.82c0,0,0.02,0.43-0.52,0.52c-0.57,0.08-0.72-0.17-0.8-0.29l-14.6-35.92v-0.05
	l-0.08-0.06c-0.8-1.92-2.31-3.07-3.63-3.57c-1.24-0.53-3.16-0.6-3.16-0.6c-1.38,0.03-2.63,0.35-3.69,1.01
	c-1.59,0.93-2.4,2.33-2.75,3.4c-0.35,1.02-0.39,1.82-0.39,2.04v39.87h10.27v-5.5h-3.83c0,0,0-33.45,0-33.71
	c0-0.23,0.09-0.59,0.65-0.64c0.54-0.02,0.63,0.32,0.63,0.32l14.69,36l0.03,0.04c0.79,1.87,2.31,3.02,3.59,3.5l0,0
	c1.27,0.55,3.16,0.57,3.16,0.57c1.32,0,2.54-0.29,3.59-0.84c1.58-0.86,2.46-2.22,2.87-3.33c0.39-1.06,0.41-1.93,0.41-2.25v-39.81
	h-10.6V191.69L829.56,191.69z"/>
<path class="st0" d="M286.06,191.69h4.15v33.82c0,0,0.03,0.43-0.52,0.52c-0.56,0.08-0.74-0.17-0.76-0.29l-14.64-35.92v-0.05
	l-0.04-0.06c-0.82-1.92-2.32-3.07-3.65-3.57c-1.25-0.53-3.16-0.6-3.16-0.6c-1.39,0.03-2.65,0.35-3.68,1.01
	c-1.6,0.93-2.41,2.33-2.75,3.4c-0.38,1.02-0.42,1.82-0.42,2.04v39.87h10.27v-5.5h-3.83c0,0,0-33.45,0-33.71
	c0-0.23,0.11-0.59,0.64-0.64c0.54-0.02,0.66,0.32,0.66,0.32l14.67,36l0.03,0.04c0.8,1.87,2.31,3.02,3.61,3.5l0,0
	c1.27,0.55,3.15,0.57,3.15,0.57c1.34,0,2.53-0.29,3.58-0.84c1.61-0.86,2.47-2.22,2.87-3.33c0.4-1.06,0.42-1.93,0.42-2.25v-39.81
	h-10.6V191.69L286.06,191.69z"/>
<path class="st0" d="M203.51,186.22h-10.88v5.47h4.43v28.6v0.04v0.14c0,0.06,0,0.08,0,0.08c0,0.67-0.19,2.51-0.94,3.75
	c-0.41,0.67-0.91,1.22-1.67,1.65c-0.79,0.44-1.89,0.81-3.7,0.81h-0.05c-1.85,0-2.94-0.39-3.76-0.89c-1.16-0.69-1.8-1.76-2.21-2.99
	c-0.39-1.14-0.44-2.34-0.43-2.54v-1.01l-6.43-0.05c0,0,0,0.9-0.02,1.06v0.03c0.02,0.82,0.09,3.73,1.72,6.77
	c0.84,1.55,2.14,3.1,4.02,4.26c1.89,1.14,4.28,1.8,7.1,1.8h0.11c2.69,0,4.97-0.59,6.84-1.65c2.79-1.57,4.31-4.07,5.06-6.19
	c0.74-2.1,0.84-3.97,0.84-4.91c0-0.25-0.02-0.44-0.02-0.51V186.22L203.51,186.22z"/>
<path class="st0" d="M248.5,186.22h-10.11v5.47h3.65v25.27c0.02,2.05-0.54,4.68-1.86,6.5c-1.45,1.84-3.8,3.3-7.83,3.3
	c-4.03,0-6.46-1.46-7.87-3.32c-1.33-1.8-1.89-4.43-1.89-6.48v-0.04v-25.24h4.13v-5.47h-10.58v30.67c0.01,3.01,0.66,6.92,3.13,10.37
	c2.41,3.41,8.56,5.96,13.25,5.96c4.7,0,10.46-2.55,12.89-5.99c2.45-3.42,3.09-7.32,3.1-10.33V186.22L248.5,186.22z"/>
<path class="st0" d="M399.7,201.58c-1,1-2.44,1.73-4.92,1.77c-1.3,0-8.51,0-8.51,0c-1.19,0-2.54,0.46-2.54,0.46
	s-1.25-1.03-1.25-2.75v-8.03c0,0-0.04-0.59,0.34-1c0.36-0.35,1.15-0.3,1.15-0.3l10.75-0.04c2.92,0.04,4.33,0.8,5.2,1.7
	c0.84,0.85,1.25,3.03,1.27,4.41C401.21,199.21,400.68,200.58,399.7,201.58 M404.52,189.82c-2.21-2.29-5.57-3.6-9.73-3.6h-10.81
	c-0.93,0.01-2.6,0.16-4.41,1.2c-0.9,0.56-1.84,1.38-2.52,2.5c-0.67,1.16-1.01,2.55-1.02,4.05l0.01,7.07c0,0.41,0.02,1.39,0.35,2.67
	c0.27,1.02,0.79,2.3,1.71,3.52c-0.42,0.54-0.77,1.09-1.03,1.67c-0.85,1.89-0.85,3.71-0.87,4.88v18.09h9.93v-5.5h-3.47
	c0-3.81,0-12.72,0-12.72s-0.02-1.82,0.84-2.82c0.86-0.99,3.27-1.03,3.27-1.03s6.67,0,8.01,0h0.04c0,0,5.92-0.13,9.52-3.71
	c2.2-2.3,3.3-5.32,3.3-8.3C407.64,195.08,406.75,192.12,404.52,189.82"/>
<polygon class="st0" points="471.63,186.22 461.68,186.22 461.68,191.69 465.18,191.69 465.18,231.88 474.87,231.88 474.87,226.38 
	471.63,226.38 471.63,186.22 "/>
<path class="st0" d="M498.21,209.15c-0.8-0.83,0-1.58,0-1.58l0,0c0.57-0.51,15.01-14.97,15.01-14.97s0.81-0.91,2.42-0.91h3.21v-5.47
	h-3.27c-0.54,0-1.56,0.03-2.83,0.38c-1.27,0.35-2.81,1.04-4.21,2.39c-1.97,2-6.84,6.9-10.29,10.32v-6.64h2.65v-6.45h-9.11v40.16
	h-3.05v5.5h9.51v-14.39l9.55,9.83v4.56h12.54L498.21,209.15L498.21,209.15z"/>
<path class="st0" d="M70.02,209.42l-7.46-2.35c1.64-3.43,6.56-13.92,6.56-13.92c0.14-0.27,0.32-0.39,0.83-0.43
	c0.5,0.04,0.64,0.14,0.8,0.43l0,0c0.15,0.34,6.19,14,6.19,14L70.02,209.42L70.02,209.42z M78.49,231.88h13.67l-6.97-15.96
	c0,0-1.07-2.75-5.09-3.86c0.79-0.34,2.1-0.73,2.7-1.21c0.92-0.84,0.97-1.96,1.01-2.85c0-0.99-0.26-1.9-0.68-2.81l-6.57-14.82
	c-1.32-2.77-3.75-4.12-6.64-4.12c-2.9,0-5.27,1.34-6.6,4.1l-6.92,14.73c-0.26,0.57-0.93,1.74-0.93,3.09c0,1.38,0.24,2.08,1.26,2.87
	c0.56,0.34,1.47,0.67,2.56,1.01c-2.81,0.56-4.38,3.79-4.38,3.79l-0.02,0.04l-6.83,15.99h13.98v-5.5h-4.47l3.73-8.42
	c0,0,0.05-0.13,0.2-0.17l0,0l8.55-2.79l8.87,2.96c0.12,0.04,0.17,0.11,0.17,0.11l3.67,8.3h-4.27V231.88L78.49,231.88z"/>
<path class="st0" d="M431.91,209.56l-7.41-2.36c1.6-3.43,6.53-13.92,6.53-13.92c0.17-0.27,0.31-0.4,0.85-0.44
	c0.49,0.04,0.63,0.15,0.77,0.44l0,0c0.16,0.34,6.21,14.02,6.21,14.02L431.91,209.56L431.91,209.56z M440.42,231.88h13.6l-6.92-15.82
	c0,0-1.06-2.76-5.08-3.86c0.79-0.36,2.1-0.76,2.68-1.23c0.93-0.84,1-1.96,1.02-2.85c0-0.98-0.25-1.92-0.67-2.82l-6.56-14.8
	c-1.34-2.76-3.79-4.11-6.65-4.11c-2.9,0-5.27,1.35-6.61,4.06l-6.92,14.77c-0.25,0.56-0.92,1.73-0.92,3.07c0,1.34,0.25,2.1,1.27,2.85
	c0.56,0.36,1.46,0.69,2.54,1.05c-2.78,0.54-4.37,3.77-4.37,3.77l-0.02,0.05l-6.78,15.86h13.92v-5.5h-4.44l3.71-8.27
	c0,0,0.06-0.15,0.19-0.19l0,0l8.55-2.8l8.88,2.96c0.12,0.05,0.18,0.13,0.18,0.13s2.2,4.95,3.59,8.18h-4.18V231.88L440.42,231.88z"/>
<path class="st0" d="M578.14,209.56l-7.45-2.36c1.61-3.43,6.54-13.92,6.54-13.92c0.16-0.27,0.33-0.4,0.84-0.44
	c0.51,0.04,0.63,0.15,0.81,0.44l0,0c0.13,0.34,6.17,14.02,6.17,14.02L578.14,209.56L578.14,209.56z M586.62,231.88h13.6l-6.92-15.82
	c0,0-1.05-2.76-5.07-3.86c0.81-0.36,2.09-0.76,2.69-1.23c0.9-0.84,0.97-1.96,1-2.85c0-0.98-0.27-1.92-0.65-2.82l-6.57-14.8
	c-1.34-2.76-3.77-4.11-6.66-4.11c-2.89,0-5.28,1.35-6.59,4.06l-6.91,14.77c-0.27,0.56-0.94,1.73-0.94,3.07
	c0,1.34,0.28,2.1,1.29,2.85c0.54,0.36,1.46,0.69,2.52,1.05c-2.79,0.54-4.35,3.77-4.35,3.77l-0.03,0.05l-6.79,15.86h13.92v-5.5h-4.44
	l3.73-8.27c0,0,0.04-0.15,0.16-0.19l0,0l8.54-2.8l8.88,2.96c0.12,0.05,0.17,0.13,0.17,0.13s2.2,4.95,3.61,8.18h-4.2V231.88
	L586.62,231.88z"/>
<path class="st0" d="M326.76,205.44v7.41l-5.17-3.65L326.76,205.44L326.76,205.44z M339.75,195.2v-8.98h-22.99
	c-4.19,0-7.57,3.4-7.57,7.58v10.06c0.02,2.73,1.39,4.45,2.48,5.42c-1.09,0.93-2.46,2.67-2.48,5.45v9.56c0,4.17,3.38,7.58,7.57,7.58
	h22.99v-8.89h-6.46v3.39h-16.3c-0.74,0-1.33-0.6-1.33-1.34l-0.01-9.26c0.01-0.32,0.05-1.55,1.25-2.88l9.4,6.61
	c0.1,0.07,0.92,0.69,2.27,0.69c0.47,0,1.15-0.14,1.52-0.27c0.76-0.33,2.3-1.42,2.28-3.35v-14.56c0.05-1.39-0.69-2.65-1.92-3.28
	c-0.59-0.33-1.21-0.45-1.72-0.45c-1.41,0.02-2.35,0.73-2.43,0.78l-9.54,6.66c-0.99-0.9-1.12-2.5-1.1-2.92l0.01-9.78
	c0-0.72,0.59-1.32,1.33-1.32h16.3v3.51H339.75L339.75,195.2z"/>
<path class="st0" d="M777.99,205.44v7.41l-5.15-3.65L777.99,205.44L777.99,205.44z M790.97,195.2v-8.98h-23.01
	c-4.15,0-7.56,3.4-7.56,7.58v10.06c0.05,2.73,1.4,4.45,2.51,5.42c-1.1,0.93-2.46,2.67-2.51,5.45v9.56c0,4.17,3.41,7.58,7.56,7.58
	h23.01v-8.89h-6.44v3.39H768.2c-0.7,0-1.29-0.6-1.29-1.34l-0.03-9.26c0.03-0.32,0.07-1.55,1.25-2.88l9.41,6.61
	c0.08,0.07,0.94,0.69,2.28,0.69c0.44,0,1.13-0.14,1.49-0.27c0.79-0.33,2.33-1.42,2.31-3.35v-14.56c0.03-1.39-0.7-2.65-1.95-3.28
	c-0.6-0.33-1.18-0.45-1.7-0.45c-1.42,0.02-2.35,0.73-2.42,0.78l-9.57,6.66c-0.97-0.9-1.1-2.5-1.09-2.92l0.03-9.78
	c0-0.72,0.6-1.32,1.29-1.32h16.34v3.51H790.97L790.97,195.2z"/>
<path class="st0" d="M918.21,205.44v7.41l-5.16-3.65L918.21,205.44L918.21,205.44z M931.18,195.2v-8.98h-23.01
	c-4.17,0-7.56,3.4-7.56,7.58v10.06c0.03,2.73,1.39,4.45,2.5,5.42c-1.12,0.93-2.48,2.67-2.5,5.45v9.56c0,4.17,3.39,7.58,7.56,7.58
	h23.01v-8.89h-6.45v3.39h-16.33c-0.72,0-1.31-0.6-1.31-1.34l-0.04-9.26c0.04-0.32,0.08-1.55,1.29-2.88l9.4,6.61
	c0.88,0.58,2.39,1.39,4.29,0.34c1.86-1.07,1.75-3.28,1.75-3.28v-14.56c0,0,0.04-2.3-1.91-3.28c-1.94-1-3.81,0.1-4.12,0.33
	l-9.57,6.66c-0.95-0.9-1.12-2.5-1.07-2.92v-9.78c0-0.72,0.59-1.32,1.31-1.32h16.33v3.51H931.18L931.18,195.2z"/>
<polygon class="st0" points="653.4,195.38 659.86,195.38 659.86,191.69 669,191.69 669,231.88 678.96,231.88 678.96,226.38 
	675.44,226.38 675.44,191.69 684.36,191.69 684.36,195.38 690.81,195.38 690.81,186.22 653.4,186.22 653.4,195.38 "/>
<polygon class="st0" points="850.93,195.38 857.4,195.38 857.4,191.69 866.54,191.69 866.54,231.88 876.52,231.88 876.52,226.38 
	873,226.38 873,191.69 881.89,191.69 881.89,195.38 888.39,195.38 888.39,186.22 850.93,186.22 850.93,195.38 "/>
<path class="st0" d="M740.64,225.62c-1.91-0.16-5.97-0.86-8.16-2.09c-1.99-1.09-3.73-2.56-5.1-4.78c-1.34-2.23-2.27-5.2-2.31-9.5
	c0.04-4.26,0.94-7.26,2.24-9.45c1.92-3.28,4.86-5.05,7.81-6.04c1.37-0.51,4.33-0.89,5.52-0.94v3.33h6.44v-9.96
	c0,0-3.36-0.01-3.74-0.01c-2.52,0-8.93,0.21-14.31,3.25c-2.69,1.54-5.37,3.83-7.29,7.11c-1.94,3.28-3.12,7.5-3.12,12.72l0,0
	c0,5.29,1.23,9.55,3.24,12.85c3.04,4.97,7.62,7.53,11.54,8.85h0.02c3.93,1.29,8.34,1.39,10.08,1.39l3.58-0.01v-9.67h-6.44V225.62
	L740.64,225.62z"/>
<path class="st0" d="M633.65,231.88h11.69l-22.43-23.51h7.18c3.95,0,8.25-0.46,10.5-2.76c2.2-2.29,3.32-5.29,3.32-8.27
	c0-2.75-0.89-5.22-3.12-7.51c-2.23-2.29-5.61-3.6-9.74-3.6h-10.83c-0.96,0.01-2.6,0.16-4.38,1.2c-0.92,0.56-1.84,1.38-2.53,2.5
	c-0.67,1.16-1.01,2.55-1.01,4.05v6.57c0,0.39,0.01,1.39,0.34,2.68c0.27,1.04,0.78,2.33,1.71,3.5c-0.42,0.56-0.76,1.12-1.02,1.72
	c-0.87,1.88-0.87,3.66-0.88,4.83v18.61h9.91v-6.45h-3.45v-12.62l14.73,15.48V231.88L633.65,231.88z M619.06,192.03
	c0.41-0.35,1.16-0.3,1.16-0.3l10.74-0.04c2.94,0.04,4.36,0.8,5.22,1.7c0.84,0.85,1.26,2.04,1.29,3.44c0,1.4-0.53,3.27-1.52,4.25
	c-1.01,1.03-2.42,1.74-4.91,1.77c-1.31,0-8.52,0-8.52,0c-1.19,0-2.55,0.45-2.55,0.45s-1.24-1.04-1.24-2.73v-7.55
	C618.73,193.03,618.7,192.44,619.06,192.03L619.06,192.03z"/>
<path class="st0" d="M968.42,231.88h11.69l-22.46-23.51h7.24c3.9,0,8.19-0.46,10.44-2.76c2.24-2.29,3.36-5.29,3.36-8.27
	c0-2.75-0.92-5.22-3.12-7.51c-2.24-2.29-5.63-3.6-9.75-3.6h-10.82c-0.96,0.01-2.61,0.16-4.39,1.2c-0.94,0.56-1.83,1.38-2.49,2.5
	c-0.68,1.16-1.08,2.55-1.08,4.05v6.57c0,0.39,0.04,1.39,0.4,2.68c0.25,1.04,0.74,2.33,1.69,3.5c-0.39,0.56-0.76,1.12-1.01,1.72
	c-0.87,1.88-0.87,3.66-0.87,4.83v18.61h9.9v-6.45h-3.45v-12.62l14.73,15.48V231.88L968.42,231.88z M953.83,192.03
	c0.4-0.35,1.15-0.3,1.15-0.3l10.76-0.04c2.92,0.04,4.33,0.8,5.21,1.7c0.83,0.85,1.25,2.04,1.25,3.44s-0.52,3.27-1.47,4.25
	c-1.04,1.03-2.44,1.74-4.92,1.77c-1.31,0-8.51,0-8.51,0c-1.23,0-2.56,0.45-2.56,0.45s-1.24-1.04-1.24-2.73v-7.55
	C953.5,193.03,953.46,192.44,953.83,192.03L953.83,192.03z"/>
<path class="st1" d="M410.95,102.08c7.06,0,12.8,5.72,12.8,12.8c0,7.05-5.74,12.76-12.8,12.76c-7.06,0-12.8-5.71-12.8-12.76
	C398.15,107.8,403.89,102.08,410.95,102.08L410.95,102.08z"/>
<path class="st1" d="M410.29,94.77c0.07,0,0.15,0.03,0.21,0.03C410.45,94.8,410.37,94.77,410.29,94.77L410.29,94.77z"/>
<path class="st1" d="M409.32,94.47L409.32,94.47c0.3,0.11,0.63,0.21,0.97,0.3C409.59,94.61,409.32,94.47,409.32,94.47L409.32,94.47z
	"/>
<path class="st1" d="M409.06,14.9c4.55,0,9.08,0.71,13.31,2.41c3.84,1.55,7.52,3.61,10.42,6.62c0.43,0.43,0.85,0.82,1.23,1.33
	c2.94,3.66,8.44,11.31,7.45,25.62c0,0-4.68,0.43-7.59,0.2c-0.06,0-0.09,0-0.14,0c-2.69-0.14-4.68-0.97-5.65-1.4
	c-3.13-1.53-5.53-4.27-6.62-7.61c-0.04-0.17-0.08-0.35-0.14-0.52c-1.85-6.07-6.03-10.32-13.24-10.32c-7.39,0-12.45,4.05-12.45,12.56
	c0,2.68,1.27,5.33,2.77,7.56c1.46,2.17,3.5,3.68,5.41,5.43c3.89,3.54,7.24,7.38,9.87,11.77c0.77,1.29,1.48,2.61,2.09,3.96
	c0.81,1.82,1.44,3.72,1.78,5.69c0.09,0.6,0.18,1.2,0.26,1.81c0.09,0.79,0.17,1.57,0.25,2.36c0.27,3.35,0.33,6.05-0.19,11.29
	c0,0.01,0,0.02,0,0.03c-0.02,0.19-0.03,0.34-0.04,0.47c-0.04,0.36-0.08,0.58-0.11,0.74c-0.04,0.18-0.07,0.25-0.07,0.25
	c-3.75,0.17-5.95-0.09-7.15-0.33c-0.06,0-0.14-0.03-0.21-0.03c-0.34-0.09-0.67-0.19-0.97-0.3c-0.7-0.25-1.26-0.55-1.47-0.67
	c-1.7-1.05-3.18-2.45-4.3-4.18c-2.71-4.23-1.22-7.71-5.46-14.18c-2.85-4.36-7.14-6.77-11.51-10.04c-2.72-2.08-5.89-4.32-7.99-7.4
	c-2.55-3.75-4.29-8.74-4.29-16.19C374.31,31.09,382.71,14.9,409.06,14.9L409.06,14.9z"/>
<polygon class="st1" points="0,0 0,11.7 0,139.91 33.48,139.91 33.48,0 0,0 "/>
<polygon class="st1" points="946.67,0 946.67,11.7 946.67,139.91 980.16,139.91 980.16,0 946.67,0 "/>
<polygon class="st1" points="565.85,77.44 495.38,77.44 495.38,92.37 565.85,92.37 565.85,77.44 "/>
<polygon class="st1" points="565.85,47.6 495.38,47.6 495.38,62.52 565.85,62.52 565.85,47.6 "/>
<polygon class="st1" points="342.03,61.76 281.56,61.76 281.56,77.85 342.03,77.85 342.03,61.76 "/>
<path class="st1" d="M214.46,102.08c-7.06,0-12.81,5.72-12.81,12.8c0,7.05,5.74,12.76,12.81,12.76c7.07,0,12.79-5.71,12.79-12.76
	C227.25,107.8,221.53,102.08,214.46,102.08L214.46,102.08z"/>
<path class="st1" d="M215.11,94.77c-0.07,0-0.14,0.03-0.22,0.03C214.97,94.8,215.04,94.77,215.11,94.77L215.11,94.77z"/>
<path class="st1" d="M216.1,94.47L216.1,94.47c-0.32,0.11-0.63,0.21-0.99,0.3C215.81,94.61,216.1,94.47,216.1,94.47L216.1,94.47z"/>
<path class="st1" d="M216.34,14.9c-4.55,0-9.07,0.71-13.31,2.41c-3.85,1.55-7.52,3.61-10.42,6.62c-0.42,0.43-0.84,0.82-1.23,1.33
	c-2.92,3.66-8.43,11.31-7.46,25.62c0,0,4.69,0.43,7.6,0.2c0.05,0,0.09,0,0.13,0c2.68-0.14,4.68-0.97,5.67-1.4
	c3.11-1.53,5.52-4.27,6.6-7.61c0.05-0.17,0.1-0.35,0.15-0.52c1.84-6.07,6.04-10.32,13.24-10.32c7.39,0,12.46,4.05,12.46,12.56
	c0,2.68-1.27,5.33-2.76,7.56c-1.47,2.17-3.51,3.68-5.41,5.43c-3.89,3.54-7.24,7.38-9.87,11.77c-0.77,1.29-1.47,2.61-2.08,3.96
	c-0.83,1.82-1.46,3.72-1.79,5.69c-0.11,0.6-0.19,1.2-0.26,1.81c-0.09,0.79-0.19,1.57-0.25,2.36c-0.28,3.35-0.34,6.05,0.19,11.29
	c0,0.01,0,0.02,0,0.03c0.02,0.19,0.04,0.34,0.05,0.47c0.04,0.36,0.08,0.58,0.1,0.74c0.04,0.18,0.07,0.25,0.07,0.25
	c3.74,0.17,5.95-0.09,7.14-0.33c0.08,0,0.16-0.03,0.22-0.03c0.36-0.09,0.67-0.19,0.99-0.3c0.68-0.25,1.24-0.55,1.46-0.67
	c1.7-1.05,3.18-2.45,4.3-4.18c2.71-4.23,1.22-7.71,5.46-14.18c2.85-4.36,7.14-6.77,11.51-10.04c2.71-2.08,5.88-4.32,7.98-7.4
	c2.56-3.75,4.29-8.74,4.29-16.19C251.09,31.09,242.7,14.9,216.34,14.9L216.34,14.9z"/>
<path class="st1" d="M789.85,40.46c0,0-2.45-2.3-6.84-4.92c-1.58-0.87-4.51-2.3-8.37-3.65c-4.7-1.67-8.01-2.26-9.13-2.43
	c-7.35-1.35-16.1-1.53-24.79,1.63c-17.36,6.32-26.89,20.01-28.63,22.73c-2.89-3.8-8.9-11.57-14.95-15.58
	c-9.18-6.08-19.51-9.7-31.07-9.7c-12.74-0.06-24.32,4.59-33.4,13.29c-8.84,8.19-13.69,18.44-13.59,29.84
	c-0.1,11.72,4.69,22.52,13.63,30.64c0,0,2.44,2.3,6.86,4.92c4.99,2.79,23.76,11.19,42.29,4.46c17.33-6.31,26.87-20,28.62-22.72
	c2.88,3.79,8.88,11.57,14.95,15.58c9.17,6.08,19.51,9.7,31.07,9.7c12.75,0.04,24.32-4.61,33.4-13.3
	c8.84-8.18,13.67-18.42,13.6-29.84C803.57,59.39,798.78,48.6,789.85,40.46L789.85,40.46z M683.56,94.07
	c-7.66,4.48-14.52,5.37-21.25,4.68c-8.62-0.89-14.4-3.98-18.91-9.34c-4.18-5.47-6.33-11.66-5.53-19.41
	c0.9-7.54,4.32-12.73,9.62-17.23c5.77-4.7,12.02-6.57,20.59-5.76c7.52,0.82,15.34,5.16,20.24,10.42
	c9.4,10.03,13.65,18.61,13.65,18.61S695.83,86.89,683.56,94.07L683.56,94.07z M784.7,72.79c-0.9,7.55-4.32,12.73-9.6,17.24
	c-5.79,4.68-12.04,6.56-20.61,5.76c-7.5-0.82-15.34-5.16-20.24-10.42c-9.41-10.03-13.66-18.62-13.66-18.62s6.15-10.85,18.41-18.02
	c7.68-4.49,14.53-5.38,21.25-4.69c8.62,0.89,14.4,3.97,18.9,9.35C783.34,58.86,785.49,65.06,784.7,72.79L784.7,72.79z"/>
</svg>
