<?xml version="1.0" encoding="utf-8"?>
<!-- Generator: Adobe Illustrator 28.0.0, SVG Export Plug-In . SVG Version: 6.00 Build 0)  -->
<svg version="1.1" id="Layer_1" xmlns="http://www.w3.org/2000/svg" xmlns:xlink="http://www.w3.org/1999/xlink" x="0px" y="0px"
	 viewBox="0 0 979.02 315.47" style="enable-background:new 0 0 979.02 315.47;" xml:space="preserve">
<style type="text/css">
	.st0{fill:#FFFFFF;}
</style>
<g>
	<g>
		<path class="st0" d="M251.82,297.76v-20.47h6.09v5.77h4.81v-5.77h6.08v20.47H251.82z M280.93,315.47v-9.08h-24.7v-5.17h30.78
			v14.25H280.93z M262.72,288.14h-4.81v4.5h4.81V288.14z M281.34,299.17v-9.12h-3.27v9.12h-5.81V276.2h5.81v8.17h3.27v-8.85h5.81
			v23.65H281.34z"/>
		<path class="st0" d="M334.84,294.4l-9.4,0.04v-17.57h6.04v12.21l3.41-0.05c5.63,0,11.53-0.72,14.66-1.31V293
			C347.1,293.54,341.29,294.4,334.84,294.4z M329.71,315.01v-16.34h28.69v16.34H329.71z M352.18,303.89h-16.25v5.9h16.25V303.89z
			 M358.4,288.68v7.94h-6.04v-21.11h6.04v7.99h5.4v5.17H358.4z"/>
		<path class="st0" d="M420.71,299.94v6.86h-6.22v-6.86h-17.66v-5.18h39.95v5.18H420.71z M430.83,292.77
			c-5.45-0.64-10.26-2.59-14.07-6.35c-2.41,3.22-8.76,5.72-13.99,6.35l-3.36-4.4c3.9-0.41,11.98-2.54,13.71-6.58h-11.8v-5.18h30.96
			v5.18h-11.76c2.77,4.54,11.26,6.22,13.62,6.58L430.83,292.77z M401.51,314.56v-11.08h6.31v5.86h25.47v5.22H401.51z"/>
		<path class="st0" d="M483.06,308.43c-6.9,0-11.44-6.04-11.44-15.12c0-9.12,4.54-15.12,11.44-15.12c7.04,0,11.44,6.08,11.44,15.12
			C494.51,302.3,490.1,308.43,483.06,308.43z M483.11,283.56c-3.36,0-5.54,4.81-5.54,9.71c0,5.04,2.18,9.8,5.54,9.8
			c3.45,0,5.45-4.72,5.45-9.8C488.56,288.32,486.56,283.56,483.11,283.56z M505.63,296.72v18.75h-6.04v-39.95h6.04v15.57h5.5v5.63
			H505.63z"/>
		<path class="st0" d="M543.87,311.16v-5.22h39.95v5.22H543.87z M548.83,301.31v-22.52h29.92v5.18h-23.75v3.54h23.57v5.13h-23.57
			v3.5h24.34v5.18H548.83z"/>
		<path class="st0" d="M635.33,300.03c-2.54-1.46-4.85-3.82-7.08-7.04c-1.45,3.04-4.4,6.04-7.12,7.67l-4.45-3.95
			c4.13-2.63,8.35-7.49,8.35-14.35v-5.81h6.5v5.81c0,7.35,4,10.99,7.71,13.3L635.33,300.03z M625.53,314.56v-12.53h6.13v7.31h24.7
			v5.22H625.53z M641.05,303.94v-14.71h-5.31v-5.36h5.31v-7.67h5.86v27.74H641.05z M649.63,304.85v-29.33h5.82v29.33H649.63z"/>
		<path class="st0" d="M708.63,307.3c-5.08,0.32-13.98,0.27-14.44,0.27v-28.33h18.98v5.22h-12.9v5.99h12.4v5.27h-12.4v6.63
			c0.18,0,3.99,0,8.31-0.23c2.86-0.18,5.81-0.55,8.04-0.81v5.13C714.26,306.71,711.44,307.12,708.63,307.3z M721.11,315.47V295.4
			h-5.95v-5.32h5.95v-14.57h6.08v39.95H721.11z"/>
	</g>
</g>
<g>
	<path class="st0" d="M144.02,189.2c0,0-0.95-1.58-2.1-2.17c-0.96-0.56-2.98-0.86-3.27-0.86c-0.3,0-1.86,0.07-3.09,0.63
		c-1.27,0.61-2.56,1.85-3.22,3.68l-8.4,23.12c-0.01,0.05-0.06,0.17-0.16,0.17c-0.14,0-0.18-0.17-0.18-0.17l-8.41-23.12
		c-0.65-1.83-1.95-3.07-3.23-3.68c-1.21-0.56-2.43-0.63-3.05-0.63c-1.01-0.04-2.33,0.31-3.31,0.86c-1.46,0.9-2.22,2.21-2.58,3.24
		c-0.36,1-0.42,1.85-0.43,2.35v38.98h11.44v-5.49h-4.99v-33.45c0,0,0-0.06,0.04-0.06c0.06,0,0.06,0.06,0.06,0.06l8.41,23.16
		c0.65,1.83,1.95,3.06,3.24,3.65c1.21,0.61,2.61,0.66,3.15,0.66c0,0,1.6-0.05,2.83-0.66c1.26-0.59,2.58-1.82,3.21-3.65l8.42-23.14
		c0.01-0.02,0.01-0.08,0.07-0.08c0.04,0,0.03,0.08,0.03,0.08v33.43h-4.89v5.49h11.34l-0.01-39.01
		C144.92,191.99,144.85,190.66,144.02,189.2"/>
	<path class="st0" d="M25.52,191.47h4.14v33.78c0,0,0.03,0.43-0.53,0.52c-0.55,0.08-0.7-0.17-0.77-0.28L13.74,189.6v-0.05
		l-0.03-0.06c-0.81-1.92-2.32-3.07-3.64-3.56c-1.27-0.53-3.15-0.59-3.15-0.59c-1.39,0.03-2.66,0.35-3.7,1.01
		c-1.6,0.93-2.4,2.33-2.76,3.4c-0.36,1.02-0.39,1.82-0.39,2.04v39.82h10.26v-5.49H6.51c0,0,0-33.41,0-33.67
		c0-0.23,0.09-0.59,0.64-0.64c0.55-0.02,0.68,0.32,0.68,0.32l14.64,35.96l0.02,0.04c0.81,1.87,2.3,3.02,3.6,3.5l0,0
		c1.28,0.55,3.14,0.57,3.14,0.57c1.33,0,2.54-0.29,3.58-0.84c1.6-0.86,2.48-2.22,2.88-3.33c0.41-1.06,0.42-1.93,0.42-2.25V186H25.52
		V191.47L25.52,191.47z"/>
	<path class="st0" d="M828.59,191.47h4.15v33.78c0,0,0.02,0.43-0.52,0.52c-0.57,0.08-0.72-0.17-0.8-0.28l-14.58-35.88v-0.05
		l-0.08-0.06c-0.8-1.92-2.31-3.07-3.63-3.56c-1.25-0.53-3.16-0.59-3.16-0.59c-1.38,0.03-2.63,0.35-3.69,1.01
		c-1.59,0.93-2.4,2.33-2.75,3.4c-0.35,1.02-0.38,1.82-0.38,2.04v39.82h10.25v-5.49h-3.82c0,0,0-33.41,0-33.67
		c0-0.23,0.09-0.59,0.65-0.64c0.53-0.02,0.63,0.32,0.63,0.32l14.67,35.96l0.03,0.04c0.79,1.87,2.3,3.02,3.58,3.5l0,0
		c1.27,0.55,3.16,0.57,3.16,0.57c1.33,0,2.54-0.29,3.59-0.84c1.59-0.86,2.46-2.22,2.87-3.33c0.39-1.06,0.42-1.93,0.42-2.25V186
		h-10.59V191.47L828.59,191.47z"/>
	<path class="st0" d="M285.73,191.47h4.14v33.78c0,0,0.04,0.43-0.52,0.52c-0.55,0.08-0.73-0.17-0.76-0.28l-14.63-35.88v-0.05
		l-0.04-0.06c-0.82-1.92-2.32-3.07-3.64-3.56c-1.25-0.53-3.16-0.59-3.16-0.59c-1.39,0.03-2.64,0.35-3.68,1.01
		c-1.6,0.93-2.41,2.33-2.75,3.4c-0.38,1.02-0.42,1.82-0.42,2.04v39.82h10.26v-5.49h-3.82c0,0,0-33.41,0-33.67
		c0-0.23,0.11-0.59,0.64-0.64c0.54-0.02,0.66,0.32,0.66,0.32l14.65,35.96l0.03,0.04c0.79,1.87,2.31,3.02,3.61,3.5l0,0
		c1.27,0.55,3.14,0.57,3.14,0.57c1.34,0,2.53-0.29,3.58-0.84c1.6-0.86,2.47-2.22,2.87-3.33c0.4-1.06,0.42-1.93,0.42-2.25V186h-10.58
		V191.47L285.73,191.47z"/>
	<path class="st0" d="M203.28,186h-10.87v5.46h4.42v28.57v0.04v0.14c0,0.06,0,0.08,0,0.08c0,0.67-0.18,2.5-0.94,3.75
		c-0.42,0.67-0.91,1.21-1.66,1.64c-0.79,0.44-1.89,0.81-3.7,0.81h-0.05c-1.84,0-2.94-0.39-3.76-0.89c-1.16-0.69-1.8-1.76-2.21-2.99
		c-0.38-1.14-0.44-2.33-0.43-2.53v-1.01l-6.43-0.05c0,0,0,0.9-0.02,1.05v0.03c0.02,0.82,0.09,3.73,1.72,6.76
		c0.85,1.54,2.14,3.1,4.02,4.26c1.89,1.14,4.28,1.8,7.09,1.8h0.11c2.68,0,4.96-0.58,6.83-1.65c2.79-1.57,4.3-4.07,5.05-6.18
		c0.73-2.1,0.83-3.97,0.83-4.9c0-0.25-0.01-0.44-0.01-0.51V186L203.28,186z"/>
	<path class="st0" d="M248.22,186h-10.1v5.46h3.64v25.24c0.02,2.05-0.54,4.68-1.86,6.49c-1.45,1.84-3.79,3.3-7.82,3.3
		c-4.02,0-6.45-1.46-7.86-3.32c-1.33-1.8-1.89-4.43-1.89-6.48v-0.04v-25.21h4.12V186h-10.57v30.63c0.01,3.01,0.65,6.91,3.12,10.36
		c2.41,3.41,8.55,5.95,13.23,5.95c4.69,0,10.44-2.54,12.87-5.99c2.45-3.41,3.09-7.31,3.1-10.32V186L248.22,186z"/>
	<path class="st0" d="M399.24,201.35c-1,1-2.43,1.73-4.91,1.77c-1.3,0-8.51,0-8.51,0c-1.19,0-2.54,0.46-2.54,0.46
		s-1.24-1.03-1.24-2.75v-8.02c0,0-0.04-0.59,0.35-1c0.36-0.35,1.14-0.3,1.14-0.3l10.75-0.04c2.92,0.04,4.33,0.8,5.2,1.7
		c0.84,0.85,1.25,3.02,1.27,4.41C400.74,198.98,400.22,200.35,399.24,201.35 M404.05,189.6c-2.21-2.28-5.57-3.6-9.72-3.6h-10.8
		c-0.93,0.01-2.6,0.16-4.4,1.2c-0.9,0.56-1.83,1.38-2.51,2.5c-0.67,1.16-1,2.54-1.02,4.04l0.01,7.06c0,0.41,0.02,1.39,0.35,2.67
		c0.27,1.02,0.79,2.29,1.71,3.51c-0.42,0.53-0.76,1.08-1.02,1.67c-0.85,1.89-0.85,3.7-0.87,4.87v18.07h9.91v-5.49h-3.46
		c0-3.81,0-12.7,0-12.7s-0.02-1.82,0.83-2.82c0.86-0.99,3.27-1.03,3.27-1.03s6.66,0,8.01,0h0.04c0,0,5.91-0.13,9.51-3.7
		c2.2-2.3,3.29-5.32,3.29-8.29C407.17,194.85,406.28,191.89,404.05,189.6"/>
	<polygon class="st0" points="471.08,186 461.14,186 461.14,191.47 464.64,191.47 464.64,231.61 474.32,231.61 474.32,226.11 
		471.08,226.11 471.08,186 	"/>
	<path class="st0" d="M497.63,208.91c-0.8-0.83,0-1.57,0-1.57l0,0c0.56-0.51,14.99-14.95,14.99-14.95s0.81-0.91,2.41-0.91h3.21V186
		h-3.27c-0.54,0-1.56,0.03-2.83,0.38c-1.27,0.34-2.8,1.04-4.2,2.39c-1.97,1.99-6.83,6.89-10.27,10.31v-6.64h2.64V186h-9.09v40.11
		h-3.05v5.49h9.5v-14.37l9.54,9.82v4.56h12.52L497.63,208.91L497.63,208.91z"/>
	<path class="st0" d="M69.94,209.18l-7.46-2.34c1.64-3.43,6.56-13.9,6.56-13.9c0.14-0.27,0.32-0.39,0.83-0.43
		c0.5,0.04,0.64,0.14,0.79,0.43l0,0c0.15,0.34,6.18,13.99,6.18,13.99L69.94,209.18L69.94,209.18z M78.4,231.61h13.65l-6.96-15.94
		c0,0-1.07-2.74-5.08-3.86c0.79-0.34,2.1-0.73,2.7-1.21c0.92-0.84,0.97-1.96,1.01-2.84c0-0.99-0.26-1.9-0.68-2.8l-6.56-14.8
		c-1.32-2.77-3.75-4.11-6.64-4.11c-2.89,0-5.27,1.34-6.59,4.09l-6.91,14.71c-0.26,0.57-0.93,1.74-0.93,3.08
		c0,1.38,0.24,2.08,1.26,2.87c0.56,0.34,1.46,0.67,2.56,1.01c-2.8,0.56-4.37,3.79-4.37,3.79l-0.02,0.04l-6.82,15.97h13.96v-5.49
		H57.5l3.73-8.41c0,0,0.05-0.13,0.2-0.17l0,0l8.54-2.79l8.85,2.96c0.11,0.04,0.17,0.11,0.17,0.11l3.67,8.29H78.4V231.61L78.4,231.61
		z"/>
	<path class="st0" d="M431.41,209.32l-7.4-2.36c1.6-3.43,6.52-13.9,6.52-13.9c0.17-0.27,0.31-0.4,0.85-0.44
		c0.49,0.04,0.63,0.15,0.77,0.44l0,0c0.16,0.34,6.21,14,6.21,14L431.41,209.32L431.41,209.32z M439.91,231.61h13.59l-6.91-15.8
		c0,0-1.07-2.75-5.07-3.85c0.79-0.36,2.09-0.76,2.68-1.23c0.93-0.84,1-1.96,1.02-2.84c0-0.98-0.26-1.92-0.67-2.82l-6.55-14.78
		c-1.34-2.75-3.78-4.11-6.64-4.11c-2.89,0-5.27,1.35-6.61,4.06l-6.91,14.75c-0.25,0.56-0.92,1.73-0.92,3.07
		c0,1.34,0.26,2.1,1.27,2.85c0.56,0.36,1.46,0.69,2.54,1.05c-2.78,0.54-4.36,3.77-4.36,3.77l-0.02,0.05l-6.77,15.84h13.91v-5.49
		h-4.44l3.7-8.26c0,0,0.06-0.15,0.19-0.18l0,0l8.54-2.8l8.88,2.95c0.12,0.05,0.17,0.13,0.17,0.13s2.2,4.95,3.59,8.17h-4.18V231.61
		L439.91,231.61z"/>
	<path class="st0" d="M577.46,209.32l-7.44-2.36c1.61-3.43,6.53-13.9,6.53-13.9c0.16-0.27,0.33-0.4,0.84-0.44
		c0.5,0.04,0.63,0.15,0.81,0.44l0,0c0.14,0.34,6.16,14,6.16,14L577.46,209.32L577.46,209.32z M585.94,231.61h13.58l-6.91-15.8
		c0,0-1.04-2.75-5.06-3.85c0.8-0.36,2.09-0.76,2.69-1.23c0.9-0.84,0.97-1.96,1-2.84c0-0.98-0.27-1.92-0.66-2.82l-6.57-14.78
		c-1.33-2.75-3.76-4.11-6.65-4.11c-2.89,0-5.27,1.35-6.58,4.06l-6.9,14.75c-0.27,0.56-0.94,1.73-0.94,3.07
		c0,1.34,0.28,2.1,1.28,2.85c0.54,0.36,1.46,0.69,2.52,1.05c-2.78,0.54-4.35,3.77-4.35,3.77l-0.03,0.05l-6.78,15.84h13.91v-5.49
		h-4.44l3.72-8.26c0,0,0.04-0.15,0.16-0.18l0,0l8.54-2.8l8.87,2.95c0.12,0.05,0.17,0.13,0.17,0.13s2.2,4.95,3.61,8.17h-4.19V231.61
		L585.94,231.61z"/>
	<path class="st0" d="M326.38,205.21v7.4l-5.17-3.64L326.38,205.21L326.38,205.21z M339.35,194.98V186h-22.97
		c-4.19,0-7.56,3.4-7.56,7.57v10.05c0.02,2.72,1.39,4.45,2.48,5.42c-1.09,0.93-2.46,2.66-2.48,5.44v9.55c0,4.16,3.37,7.57,7.56,7.57
		h22.97v-8.88h-6.45v3.39h-16.28c-0.74,0-1.33-0.59-1.33-1.34l-0.01-9.25c0.01-0.32,0.05-1.55,1.25-2.88l9.39,6.6
		c0.1,0.07,0.92,0.68,2.26,0.68c0.47,0,1.15-0.14,1.52-0.27c0.76-0.33,2.29-1.41,2.28-3.35v-14.54c0.05-1.39-0.69-2.64-1.91-3.28
		c-0.59-0.33-1.21-0.45-1.72-0.45c-1.41,0.02-2.35,0.73-2.43,0.78l-9.53,6.65c-0.99-0.9-1.12-2.5-1.1-2.92l0-9.77
		c0-0.71,0.59-1.32,1.33-1.32h16.28v3.51H339.35L339.35,194.98z"/>
	<path class="st0" d="M777.08,205.21v7.4l-5.14-3.64L777.08,205.21L777.08,205.21z M790.04,194.98V186h-22.98
		c-4.15,0-7.55,3.4-7.55,7.57v10.05c0.05,2.72,1.4,4.45,2.5,5.42c-1.11,0.93-2.46,2.66-2.5,5.44v9.55c0,4.16,3.41,7.57,7.55,7.57
		h22.98v-8.88h-6.43v3.39h-16.32c-0.69,0-1.29-0.59-1.29-1.34l-0.03-9.25c0.03-0.32,0.07-1.55,1.25-2.88l9.4,6.6
		c0.08,0.07,0.94,0.68,2.27,0.68c0.45,0,1.13-0.14,1.49-0.27c0.79-0.33,2.32-1.41,2.3-3.35v-14.54c0.04-1.39-0.7-2.64-1.94-3.28
		c-0.6-0.33-1.17-0.45-1.7-0.45c-1.41,0.02-2.34,0.73-2.42,0.78l-9.55,6.65c-0.97-0.9-1.1-2.5-1.09-2.92l0.03-9.77
		c0-0.71,0.6-1.32,1.29-1.32h16.32v3.51H790.04L790.04,194.98z"/>
	<path class="st0" d="M917.13,205.21v7.4l-5.16-3.64L917.13,205.21L917.13,205.21z M930.1,194.98V186h-22.99
		c-4.17,0-7.56,3.4-7.56,7.57v10.05c0.03,2.72,1.39,4.45,2.5,5.42c-1.11,0.93-2.47,2.66-2.5,5.44v9.55c0,4.16,3.39,7.57,7.56,7.57
		h22.99v-8.88h-6.44v3.39h-16.32c-0.72,0-1.3-0.59-1.3-1.34l-0.04-9.25c0.04-0.32,0.07-1.55,1.28-2.88l9.39,6.6
		c0.89,0.58,2.39,1.39,4.29,0.34c1.86-1.07,1.74-3.27,1.74-3.27v-14.54c0,0,0.04-2.3-1.91-3.28c-1.93-1-3.8,0.1-4.12,0.33
		l-9.55,6.65c-0.95-0.9-1.12-2.5-1.07-2.92v-9.77c0-0.71,0.58-1.32,1.3-1.32h16.32v3.51H930.1L930.1,194.98z"/>
	<polygon class="st0" points="652.64,195.15 659.09,195.15 659.09,191.47 668.23,191.47 668.23,231.61 678.17,231.61 678.17,226.11 
		674.65,226.11 674.65,191.47 683.57,191.47 683.57,195.15 690.01,195.15 690.01,186 652.64,186 652.64,195.15 	"/>
	<polygon class="st0" points="849.94,195.15 856.4,195.15 856.4,191.47 865.53,191.47 865.53,231.61 875.5,231.61 875.5,226.11 
		871.98,226.11 871.98,191.47 880.86,191.47 880.86,195.15 887.35,195.15 887.35,186 849.94,186 849.94,195.15 	"/>
	<path class="st0" d="M739.77,225.36c-1.91-0.16-5.97-0.86-8.15-2.09c-1.98-1.09-3.72-2.56-5.09-4.78c-1.34-2.22-2.27-5.19-2.3-9.49
		c0.04-4.25,0.93-7.25,2.23-9.44c1.91-3.28,4.86-5.04,7.79-6.04c1.36-0.51,4.32-0.89,5.52-0.93v3.32h6.43v-9.95
		c0,0-3.36-0.01-3.73-0.01c-2.53,0-8.92,0.21-14.29,3.24c-2.69,1.54-5.36,3.82-7.29,7.11c-1.94,3.27-3.12,7.49-3.12,12.7l0,0
		c0,5.29,1.23,9.54,3.24,12.83c3.04,4.97,7.62,7.52,11.53,8.84h0.02c3.92,1.29,8.33,1.39,10.07,1.39l3.57-0.01v-9.66h-6.43V225.36
		L739.77,225.36z"/>
	<path class="st0" d="M632.91,231.61h11.67l-22.4-23.49h7.17c3.94,0,8.24-0.46,10.49-2.76c2.2-2.29,3.32-5.29,3.32-8.26
		c0-2.74-0.89-5.21-3.12-7.5c-2.23-2.28-5.6-3.6-9.72-3.6h-10.82c-0.96,0.01-2.6,0.16-4.38,1.2c-0.91,0.56-1.84,1.38-2.52,2.5
		c-0.67,1.16-1.01,2.54-1.01,4.04v6.56c0,0.39,0.01,1.39,0.34,2.68c0.27,1.04,0.78,2.32,1.71,3.5c-0.41,0.56-0.76,1.12-1.01,1.71
		c-0.86,1.88-0.86,3.66-0.88,4.83v18.59h9.89v-6.44h-3.44v-12.6l14.72,15.46V231.61L632.91,231.61z M618.34,191.8
		c0.41-0.35,1.16-0.3,1.16-0.3l10.73-0.04c2.94,0.04,4.35,0.8,5.21,1.7c0.84,0.85,1.26,2.04,1.29,3.43c0,1.4-0.53,3.27-1.52,4.25
		c-1,1.02-2.41,1.74-4.9,1.77c-1.31,0-8.52,0-8.52,0c-1.18,0-2.55,0.45-2.55,0.45s-1.24-1.04-1.24-2.73v-7.54
		C618.01,192.8,617.98,192.22,618.34,191.8L618.34,191.8z"/>
	<path class="st0" d="M967.28,231.61h11.67l-22.42-23.49h7.23c3.89,0,8.18-0.46,10.42-2.76c2.24-2.29,3.36-5.29,3.36-8.26
		c0-2.74-0.93-5.21-3.12-7.5c-2.23-2.28-5.63-3.6-9.75-3.6h-10.8c-0.96,0.01-2.61,0.16-4.39,1.2c-0.94,0.56-1.84,1.38-2.49,2.5
		c-0.68,1.16-1.08,2.54-1.08,4.04v6.56c0,0.39,0.04,1.39,0.4,2.68c0.26,1.04,0.74,2.32,1.68,3.5c-0.39,0.56-0.75,1.12-1,1.71
		c-0.87,1.88-0.87,3.66-0.87,4.83v18.59h9.89v-6.44h-3.44v-12.6l14.71,15.46V231.61L967.28,231.61z M952.71,191.8
		c0.41-0.35,1.16-0.3,1.16-0.3l10.74-0.04c2.92,0.04,4.32,0.8,5.2,1.7c0.83,0.85,1.25,2.04,1.25,3.43c0,1.4-0.52,3.27-1.47,4.25
		c-1.04,1.02-2.44,1.74-4.92,1.77c-1.3,0-8.5,0-8.5,0c-1.23,0-2.55,0.45-2.55,0.45s-1.24-1.04-1.24-2.73v-7.54
		C952.39,192.8,952.34,192.22,952.71,191.8L952.71,191.8z"/>
</g>
</svg>
