<?xml version="1.0" encoding="utf-8"?>
<!-- Generator: Adobe Illustrator 28.0.0, SVG Export Plug-In . SVG Version: 6.00 Build 0)  -->
<svg version="1.1" id="Layer_1" xmlns="http://www.w3.org/2000/svg" xmlns:xlink="http://www.w3.org/1999/xlink" x="0px" y="0px"
	 viewBox="0 0 979 130.1" style="enable-background:new 0 0 979 130.1;" xml:space="preserve">
<style type="text/css">
	.st0{fill:#231F20;}
</style>
<g>
	<g>
		<path class="st0" d="M251.8,112.4V91.9h6.1v5.8h4.8v-5.8h6.1v20.5H251.8z M280.9,130.1v-9.1h-24.7v-5.2H287v14.2H280.9z
			 M262.7,102.8h-4.8v4.5h4.8V102.8z M281.3,113.8v-9.1h-3.3v9.1h-5.8v-23h5.8V99h3.3v-8.8h5.8v23.7H281.3z"/>
		<path class="st0" d="M334.8,109.1l-9.4,0V91.5h6v12.2l3.4-0.1c5.6,0,11.5-0.7,14.7-1.3v5.3C347.1,108.2,341.3,109.1,334.8,109.1z
			 M329.7,129.7v-16.3h28.7v16.3H329.7z M352.2,118.6h-16.2v5.9h16.2V118.6z M358.4,103.3v7.9h-6V90.2h6v8h5.4v5.2H358.4z"/>
		<path class="st0" d="M420.7,114.6v6.9h-6.2v-6.9h-17.7v-5.2h40v5.2H420.7z M430.8,107.4c-5.5-0.6-10.3-2.6-14.1-6.3
			c-2.4,3.2-8.8,5.7-14,6.3l-3.4-4.4c3.9-0.4,12-2.5,13.7-6.6h-11.8v-5.2h31v5.2h-11.8c2.8,4.5,11.3,6.2,13.6,6.6L430.8,107.4z
			 M401.5,129.2v-11.1h6.3v5.9h25.5v5.2H401.5z"/>
		<path class="st0" d="M483.1,123.1c-6.9,0-11.4-6-11.4-15.1c0-9.1,4.5-15.1,11.4-15.1c7,0,11.4,6.1,11.4,15.1
			C494.5,117,490.1,123.1,483.1,123.1z M483.1,98.2c-3.4,0-5.5,4.8-5.5,9.7c0,5,2.2,9.8,5.5,9.8c3.5,0,5.5-4.7,5.5-9.8
			C488.6,103,486.6,98.2,483.1,98.2z M505.6,111.4v18.8h-6v-40h6v15.6h5.5v5.6H505.6z"/>
		<path class="st0" d="M543.9,125.8v-5.2h40v5.2H543.9z M548.8,116V93.4h29.9v5.2H555v3.5h23.6v5.1H555v3.5h24.3v5.2L548.8,116
			L548.8,116z"/>
		<path class="st0" d="M635.3,114.7c-2.5-1.5-4.8-3.8-7.1-7c-1.5,3-4.4,6-7.1,7.7l-4.5-3.9c4.1-2.6,8.3-7.5,8.3-14.3v-5.8h6.5V97
			c0,7.3,4,11,7.7,13.3L635.3,114.7z M625.5,129.2v-12.5h6.1v7.3h24.7v5.2H625.5z M641,118.6v-14.7h-5.3v-5.4h5.3v-7.7h5.9v27.7H641
			z M649.6,119.5V90.2h5.8v29.3H649.6z"/>
		<path class="st0" d="M708.6,122c-5.1,0.3-14,0.3-14.4,0.3V93.9h19v5.2h-12.9v6h12.4v5.3h-12.4v6.6c0.2,0,4,0,8.3-0.2
			c2.9-0.2,5.8-0.6,8-0.8v5.1C714.3,121.4,711.4,121.8,708.6,122z M721.1,130.1v-20.1h-6v-5.3h6V90.2h6.1v40H721.1z"/>
	</g>
</g>
<g>
	<path class="st0" d="M144,3.9c0,0-0.9-1.6-2.1-2.2c-1-0.6-3-0.9-3.3-0.9c-0.3,0-1.9,0.1-3.1,0.6c-1.3,0.6-2.6,1.9-3.2,3.7
		l-8.4,23.1c0,0-0.1,0.2-0.2,0.2c-0.1,0-0.2-0.2-0.2-0.2l-8.4-23.1c-0.7-1.8-1.9-3.1-3.2-3.7c-1.2-0.6-2.4-0.6-3.1-0.6
		c-1,0-2.3,0.3-3.3,0.9c-1.5,0.9-2.2,2.2-2.6,3.2c-0.4,1-0.4,1.8-0.4,2.3v39H114v-5.5h-5V7.3c0,0,0-0.1,0-0.1c0.1,0,0.1,0.1,0.1,0.1
		l8.4,23.2c0.7,1.8,1.9,3.1,3.2,3.7c1.2,0.6,2.6,0.7,3.2,0.7c0,0,1.6,0,2.8-0.7c1.3-0.6,2.6-1.8,3.2-3.6l8.4-23.1c0,0,0-0.1,0.1-0.1
		c0,0,0,0.1,0,0.1v33.4h-4.9v5.5h11.3l0-39C144.9,6.7,144.9,5.3,144,3.9"/>
	<path class="st0" d="M25.5,6.1h4.1v33.8c0,0,0,0.4-0.5,0.5c-0.5,0.1-0.7-0.2-0.8-0.3L13.7,4.3V4.2l0-0.1c-0.8-1.9-2.3-3.1-3.6-3.6
		C8.8,0.1,6.9,0,6.9,0C5.5,0,4.3,0.3,3.2,1C1.6,1.9,0.8,3.3,0.5,4.4c-0.4,1-0.4,1.8-0.4,2v39.8h10.3v-5.5H6.5c0,0,0-33.4,0-33.7
		c0-0.2,0.1-0.6,0.6-0.6c0.6,0,0.7,0.3,0.7,0.3l14.6,36l0,0c0.8,1.9,2.3,3,3.6,3.5l0,0c1.3,0.5,3.1,0.6,3.1,0.6
		c1.3,0,2.5-0.3,3.6-0.8c1.6-0.9,2.5-2.2,2.9-3.3c0.4-1.1,0.4-1.9,0.4-2.2V0.7H25.5V6.1L25.5,6.1z"/>
	<path class="st0" d="M828.6,6.1h4.2v33.8c0,0,0,0.4-0.5,0.5c-0.6,0.1-0.7-0.2-0.8-0.3L816.8,4.3V4.2l-0.1-0.1
		c-0.8-1.9-2.3-3.1-3.6-3.6C811.9,0.1,810,0,810,0c-1.4,0-2.6,0.3-3.7,1c-1.6,0.9-2.4,2.3-2.8,3.4c-0.3,1-0.4,1.8-0.4,2v39.8h10.2
		v-5.5h-3.8c0,0,0-33.4,0-33.7c0-0.2,0.1-0.6,0.7-0.6c0.5,0,0.6,0.3,0.6,0.3l14.7,36l0,0c0.8,1.9,2.3,3,3.6,3.5l0,0
		c1.3,0.5,3.2,0.6,3.2,0.6c1.3,0,2.5-0.3,3.6-0.8c1.6-0.9,2.5-2.2,2.9-3.3c0.4-1.1,0.4-1.9,0.4-2.2V0.7h-10.6L828.6,6.1L828.6,6.1z"
		/>
	<path class="st0" d="M285.7,6.1h4.1v33.8c0,0,0,0.4-0.5,0.5c-0.5,0.1-0.7-0.2-0.8-0.3L274,4.3V4.2l0-0.1c-0.8-1.9-2.3-3.1-3.6-3.6
		C269,0.1,267.1,0,267.1,0c-1.4,0-2.6,0.3-3.7,1c-1.6,0.9-2.4,2.3-2.8,3.4c-0.4,1-0.4,1.8-0.4,2v39.8h10.3v-5.5h-3.8
		c0,0,0-33.4,0-33.7c0-0.2,0.1-0.6,0.6-0.6c0.5,0,0.7,0.3,0.7,0.3l14.6,36l0,0c0.8,1.9,2.3,3,3.6,3.5l0,0c1.3,0.5,3.1,0.6,3.1,0.6
		c1.3,0,2.5-0.3,3.6-0.8c1.6-0.9,2.5-2.2,2.9-3.3c0.4-1.1,0.4-1.9,0.4-2.2V0.7h-10.6V6.1L285.7,6.1z"/>
	<path class="st0" d="M203.3,0.7h-10.9v5.5h4.4v28.6v0v0.1c0,0.1,0,0.1,0,0.1c0,0.7-0.2,2.5-0.9,3.8c-0.4,0.7-0.9,1.2-1.7,1.6
		c-0.8,0.4-1.9,0.8-3.7,0.8h-0.1c-1.8,0-2.9-0.4-3.8-0.9c-1.2-0.7-1.8-1.8-2.2-3c-0.4-1.1-0.4-2.3-0.4-2.5v-1l-6.4,0c0,0,0,0.9,0,1
		v0c0,0.8,0.1,3.7,1.7,6.8c0.9,1.5,2.1,3.1,4,4.3c1.9,1.1,4.3,1.8,7.1,1.8h0.1c2.7,0,5-0.6,6.8-1.7c2.8-1.6,4.3-4.1,5.1-6.2
		c0.7-2.1,0.8-4,0.8-4.9c0-0.2,0-0.4,0-0.5L203.3,0.7L203.3,0.7z"/>
	<path class="st0" d="M248.2,0.7h-10.1v5.5h3.6v25.2c0,2-0.5,4.7-1.9,6.5c-1.4,1.8-3.8,3.3-7.8,3.3c-4,0-6.4-1.5-7.9-3.3
		c-1.3-1.8-1.9-4.4-1.9-6.5v0V6.1h4.1V0.7h-10.6v30.6c0,3,0.6,6.9,3.1,10.4c2.4,3.4,8.6,6,13.2,6c4.7,0,10.4-2.5,12.9-6
		c2.4-3.4,3.1-7.3,3.1-10.3L248.2,0.7L248.2,0.7z"/>
	<path class="st0" d="M399.2,16c-1,1-2.4,1.7-4.9,1.8c-1.3,0-8.5,0-8.5,0c-1.2,0-2.5,0.5-2.5,0.5s-1.2-1-1.2-2.8v-8c0,0,0-0.6,0.4-1
		c0.4-0.3,1.1-0.3,1.1-0.3l10.8,0c2.9,0,4.3,0.8,5.2,1.7c0.8,0.9,1.2,3,1.3,4.4C400.7,13.6,400.2,15,399.2,16 M404,4.3
		c-2.2-2.3-5.6-3.6-9.7-3.6h-10.8c-0.9,0-2.6,0.2-4.4,1.2c-0.9,0.6-1.8,1.4-2.5,2.5c-0.7,1.2-1,2.5-1,4l0,7.1c0,0.4,0,1.4,0.4,2.7
		c0.3,1,0.8,2.3,1.7,3.5c-0.4,0.5-0.8,1.1-1,1.7c-0.9,1.9-0.9,3.7-0.9,4.9v18.1h9.9v-5.5h-3.5c0-3.8,0-12.7,0-12.7s0-1.8,0.8-2.8
		c0.9-1,3.3-1,3.3-1s6.7,0,8,0h0c0,0,5.9-0.1,9.5-3.7c2.2-2.3,3.3-5.3,3.3-8.3C407.2,9.5,406.3,6.6,404,4.3"/>
	<polygon class="st0" points="471.1,0.7 461.1,0.7 461.1,6.1 464.6,6.1 464.6,46.3 474.3,46.3 474.3,40.8 471.1,40.8 	"/>
	<path class="st0" d="M497.6,23.6c-0.8-0.8,0-1.6,0-1.6l0,0c0.6-0.5,15-14.9,15-14.9s0.8-0.9,2.4-0.9h3.2V0.7H515
		c-0.5,0-1.6,0-2.8,0.4c-1.3,0.3-2.8,1-4.2,2.4c-2,2-6.8,6.9-10.3,10.3V7.1h2.6V0.7h-9.1v40.1h-3v5.5h9.5V31.9l9.5,9.8v4.6h12.5
		L497.6,23.6L497.6,23.6z"/>
	<path class="st0" d="M69.9,23.8l-7.5-2.3C64.1,18.1,69,7.6,69,7.6c0.1-0.3,0.3-0.4,0.8-0.4c0.5,0,0.6,0.1,0.8,0.4l0,0
		c0.2,0.3,6.2,14,6.2,14L69.9,23.8L69.9,23.8z M78.4,46.3h13.7l-7-15.9c0,0-1.1-2.7-5.1-3.9c0.8-0.3,2.1-0.7,2.7-1.2
		c0.9-0.8,1-2,1-2.8c0-1-0.3-1.9-0.7-2.8L76.5,4.8c-1.3-2.8-3.8-4.1-6.6-4.1s-5.3,1.3-6.6,4.1l-6.9,14.7c-0.3,0.6-0.9,1.7-0.9,3.1
		c0,1.4,0.2,2.1,1.3,2.9c0.6,0.3,1.5,0.7,2.6,1c-2.8,0.6-4.4,3.8-4.4,3.8l0,0l-6.8,16h14v-5.5h-4.5l3.7-8.4c0,0,0-0.1,0.2-0.2l0,0
		l8.5-2.8l8.8,3c0.1,0,0.2,0.1,0.2,0.1l3.7,8.3h-4.3V46.3L78.4,46.3z"/>
	<path class="st0" d="M431.4,24l-7.4-2.4c1.6-3.4,6.5-13.9,6.5-13.9c0.2-0.3,0.3-0.4,0.9-0.4c0.5,0,0.6,0.2,0.8,0.4l0,0
		c0.2,0.3,6.2,14,6.2,14L431.4,24L431.4,24z M439.9,46.3h13.6l-6.9-15.8c0,0-1.1-2.8-5.1-3.9c0.8-0.4,2.1-0.8,2.7-1.2
		c0.9-0.8,1-2,1-2.8c0-1-0.3-1.9-0.7-2.8L438,5c-1.3-2.8-3.8-4.1-6.6-4.1c-2.9,0-5.3,1.3-6.6,4.1l-6.9,14.8
		c-0.2,0.6-0.9,1.7-0.9,3.1s0.3,2.1,1.3,2.9c0.6,0.4,1.5,0.7,2.5,1c-2.8,0.5-4.4,3.8-4.4,3.8l0,0l-6.8,15.8h13.9v-5.5H419l3.7-8.3
		c0,0,0.1-0.2,0.2-0.2l0,0l8.5-2.8l8.9,3c0.1,0,0.2,0.1,0.2,0.1s2.2,5,3.6,8.2h-4.2L439.9,46.3L439.9,46.3z"/>
	<path class="st0" d="M577.5,24l-7.4-2.4c1.6-3.4,6.5-13.9,6.5-13.9c0.2-0.3,0.3-0.4,0.8-0.4c0.5,0,0.6,0.2,0.8,0.4l0,0
		c0.1,0.3,6.2,14,6.2,14L577.5,24L577.5,24z M585.9,46.3h13.6l-6.9-15.8c0,0-1-2.8-5.1-3.9c0.8-0.4,2.1-0.8,2.7-1.2
		c0.9-0.8,1-2,1-2.8c0-1-0.3-1.9-0.7-2.8L584,5c-1.3-2.8-3.8-4.1-6.7-4.1s-5.3,1.3-6.6,4.1l-6.9,14.8c-0.3,0.6-0.9,1.7-0.9,3.1
		s0.3,2.1,1.3,2.9c0.5,0.4,1.5,0.7,2.5,1c-2.8,0.5-4.3,3.8-4.3,3.8l0,0l-6.8,15.8h13.9v-5.5H565l3.7-8.3c0,0,0-0.2,0.2-0.2l0,0
		l8.5-2.8l8.9,3c0.1,0,0.2,0.1,0.2,0.1s2.2,5,3.6,8.2h-4.2L585.9,46.3L585.9,46.3z"/>
	<path class="st0" d="M326.4,19.9v7.4l-5.2-3.6L326.4,19.9L326.4,19.9z M339.4,9.6v-9h-23c-4.2,0-7.6,3.4-7.6,7.6v10.1
		c0,2.7,1.4,4.5,2.5,5.4c-1.1,0.9-2.5,2.7-2.5,5.4v9.5c0,4.2,3.4,7.6,7.6,7.6h23v-8.9h-6.5v3.4h-16.3c-0.7,0-1.3-0.6-1.3-1.3l0-9.2
		c0-0.3,0-1.5,1.2-2.9l9.4,6.6c0.1,0.1,0.9,0.7,2.3,0.7c0.5,0,1.1-0.1,1.5-0.3c0.8-0.3,2.3-1.4,2.3-3.4V16.4c0-1.4-0.7-2.6-1.9-3.3
		c-0.6-0.3-1.2-0.4-1.7-0.4c-1.4,0-2.4,0.7-2.4,0.8l-9.5,6.7c-1-0.9-1.1-2.5-1.1-2.9V7.5c0-0.7,0.6-1.3,1.3-1.3h16.3v3.5H339.4
		L339.4,9.6z"/>
	<path class="st0" d="M777.1,19.9v7.4l-5.1-3.6L777.1,19.9L777.1,19.9z M790,9.6v-9h-23c-4.2,0-7.5,3.4-7.5,7.6v10.1
		c0,2.7,1.4,4.5,2.5,5.4c-1.1,0.9-2.5,2.7-2.5,5.4v9.5c0,4.2,3.4,7.6,7.5,7.6h23v-8.9h-6.4v3.4h-16.3c-0.7,0-1.3-0.6-1.3-1.3l0-9.2
		c0-0.3,0.1-1.5,1.2-2.9l9.4,6.6c0.1,0.1,0.9,0.7,2.3,0.7c0.5,0,1.1-0.1,1.5-0.3c0.8-0.3,2.3-1.4,2.3-3.4V16.4
		c0-1.4-0.7-2.6-1.9-3.3c-0.6-0.3-1.2-0.4-1.7-0.4c-1.4,0-2.3,0.7-2.4,0.8l-9.5,6.7c-1-0.9-1.1-2.5-1.1-2.9l0-9.8
		c0-0.7,0.6-1.3,1.3-1.3h16.3v3.5L790,9.6L790,9.6z"/>
	<path class="st0" d="M917.1,19.9v7.4l-5.2-3.6L917.1,19.9L917.1,19.9z M930.1,9.6v-9h-23c-4.2,0-7.6,3.4-7.6,7.6v10.1
		c0,2.7,1.4,4.5,2.5,5.4c-1.1,0.9-2.5,2.7-2.5,5.4v9.5c0,4.2,3.4,7.6,7.6,7.6h23v-8.9h-6.4v3.4h-16.3c-0.7,0-1.3-0.6-1.3-1.3l0-9.2
		c0-0.3,0.1-1.5,1.3-2.9l9.4,6.6c0.9,0.6,2.4,1.4,4.3,0.3c1.9-1.1,1.7-3.3,1.7-3.3V16.4c0,0,0-2.3-1.9-3.3c-1.9-1-3.8,0.1-4.1,0.3
		l-9.5,6.7c-1-0.9-1.1-2.5-1.1-2.9V7.4c0-0.7,0.6-1.3,1.3-1.3h16.3v3.5L930.1,9.6L930.1,9.6z"/>
	<polygon class="st0" points="652.6,9.8 659.1,9.8 659.1,6.1 668.2,6.1 668.2,46.3 678.2,46.3 678.2,40.8 674.7,40.8 674.7,6.1 
		683.6,6.1 683.6,9.8 690,9.8 690,0.7 652.6,0.7 	"/>
	<polygon class="st0" points="849.9,9.8 856.4,9.8 856.4,6.1 865.5,6.1 865.5,46.3 875.5,46.3 875.5,40.8 872,40.8 872,6.1 
		880.9,6.1 880.9,9.8 887.3,9.8 887.3,0.7 849.9,0.7 	"/>
	<path class="st0" d="M739.8,40c-1.9-0.2-6-0.9-8.2-2.1c-2-1.1-3.7-2.6-5.1-4.8c-1.3-2.2-2.3-5.2-2.3-9.5c0-4.2,0.9-7.2,2.2-9.4
		c1.9-3.3,4.9-5,7.8-6c1.4-0.5,4.3-0.9,5.5-0.9v3.3h6.4v-10c0,0-3.4,0-3.7,0c-2.5,0-8.9,0.2-14.3,3.2c-2.7,1.5-5.4,3.8-7.3,7.1
		c-1.9,3.3-3.1,7.5-3.1,12.7l0,0c0,5.3,1.2,9.5,3.2,12.8c3,5,7.6,7.5,11.5,8.8h0c3.9,1.3,8.3,1.4,10.1,1.4l3.6,0v-9.7h-6.4L739.8,40
		L739.8,40z"/>
	<path class="st0" d="M632.9,46.3h11.7l-22.4-23.5h7.2c3.9,0,8.2-0.5,10.5-2.8c2.2-2.3,3.3-5.3,3.3-8.3c0-2.7-0.9-5.2-3.1-7.5
		c-2.2-2.3-5.6-3.6-9.7-3.6h-10.8c-1,0-2.6,0.2-4.4,1.2c-0.9,0.6-1.8,1.4-2.5,2.5c-0.7,1.2-1,2.5-1,4V15c0,0.4,0,1.4,0.3,2.7
		c0.3,1,0.8,2.3,1.7,3.5c-0.4,0.6-0.8,1.1-1,1.7c-0.9,1.9-0.9,3.7-0.9,4.8v18.6h9.9v-6.4h-3.4V27.2l14.7,15.5L632.9,46.3L632.9,46.3
		z M618.3,6.5c0.4-0.3,1.2-0.3,1.2-0.3l10.7,0c2.9,0,4.3,0.8,5.2,1.7c0.8,0.9,1.3,2,1.3,3.4c0,1.4-0.5,3.3-1.5,4.2
		c-1,1-2.4,1.7-4.9,1.8c-1.3,0-8.5,0-8.5,0c-1.2,0-2.5,0.5-2.5,0.5s-1.2-1-1.2-2.7V7.5C618,7.5,618,6.9,618.3,6.5L618.3,6.5z"/>
	<path class="st0" d="M967.3,46.3H979l-22.4-23.5h7.2c3.9,0,8.2-0.5,10.4-2.8c2.2-2.3,3.4-5.3,3.4-8.3c0-2.7-0.9-5.2-3.1-7.5
		c-2.2-2.3-5.6-3.6-9.8-3.6h-10.8c-1,0-2.6,0.2-4.4,1.2c-0.9,0.6-1.8,1.4-2.5,2.5c-0.7,1.2-1.1,2.5-1.1,4V15c0,0.4,0,1.4,0.4,2.7
		c0.3,1,0.7,2.3,1.7,3.5c-0.4,0.6-0.8,1.1-1,1.7c-0.9,1.9-0.9,3.7-0.9,4.8v18.6h9.9v-6.4h-3.4V27.2l14.7,15.5V46.3L967.3,46.3z
		 M952.7,6.5c0.4-0.3,1.2-0.3,1.2-0.3l10.7,0c2.9,0,4.3,0.8,5.2,1.7c0.8,0.9,1.2,2,1.2,3.4c0,1.4-0.5,3.3-1.5,4.2
		c-1,1-2.4,1.7-4.9,1.8c-1.3,0-8.5,0-8.5,0c-1.2,0-2.5,0.5-2.5,0.5s-1.2-1-1.2-2.7V7.5C952.4,7.5,952.3,6.9,952.7,6.5L952.7,6.5z"/>
</g>
</svg>
