<svg width="30" height="30" viewBox="0 0 30 30" fill="none" xmlns="http://www.w3.org/2000/svg">
<g clip-path="url(#clip0_168_172)">
<path d="M30 5.89263C28.8763 6.38956 27.6852 6.71732 26.4654 6.86523C27.7517 6.09566 28.7142 4.8846 29.1735 3.45783C27.9658 4.17677 26.6433 4.68217 25.2639 4.95183C24.4205 4.04929 23.3249 3.42153 22.1197 3.15023C20.9146 2.87893 19.6557 2.97665 18.5069 3.43068C17.358 3.88471 16.3725 4.67403 15.6784 5.69591C14.9844 6.7178 14.614 7.92493 14.6154 9.16023C14.6131 9.63314 14.6665 10.1047 14.7744 10.5651C12.3254 10.444 9.92939 9.80784 7.7428 8.69821C5.55621 7.58858 3.62815 6.0304 2.0844 4.12533C1.29761 5.48219 1.05687 7.08768 1.41109 8.61563C1.76532 10.1436 2.68793 11.4794 3.9915 12.3516C3.01271 12.3264 2.05492 12.0624 1.2015 11.5824V11.6586C1.20121 13.0807 1.69296 14.4591 2.59329 15.5599C3.49363 16.6607 4.7471 17.4161 6.141 17.6979C5.61291 17.8411 5.06817 17.9138 4.521 17.9139C4.13245 17.9146 3.7448 17.8763 3.3639 17.7996C3.75701 19.0237 4.52297 20.0942 5.5546 20.8614C6.58623 21.6286 7.8319 22.054 9.1173 22.0782C6.93704 23.7919 4.24312 24.7213 1.47 24.7164C0.978655 24.7154 0.4878 24.6854 0 24.6264C2.80578 26.4499 6.08156 27.4174 9.4278 27.411C20.7564 27.411 26.9478 18.021 26.9478 9.87753C26.9478 9.61053 26.9415 9.34353 26.9286 9.08283C28.1322 8.20856 29.172 7.12857 30 5.89263Z" fill="#F4F4F4"/>
</g>
<defs>
<clipPath id="clip0_168_172">
<rect width="30" height="30" fill="white"/>
</clipPath>
</defs>
</svg>
