<svg width="30" height="27" viewBox="0 0 30 27" fill="none" xmlns="http://www.w3.org/2000/svg">
<path d="M28.6279 6.48364C28.3007 5.24771 27.3369 4.27433 26.1131 3.944C23.8948 3.34375 15 3.34375 15 3.34375C15 3.34375 6.10522 3.34375 3.88694 3.944C2.66314 4.27438 1.69928 5.24771 1.37215 6.48364C0.777771 8.72384 0.777771 13.3978 0.777771 13.3978C0.777771 13.3978 0.777771 18.0718 1.37215 20.312C1.69928 21.5479 2.66314 22.4807 3.88694 22.8111C6.10522 23.4113 15 23.4113 15 23.4113C15 23.4113 23.8948 23.4113 26.1131 22.8111C27.3369 22.4807 28.3007 21.5479 28.6279 20.312C29.2222 18.0718 29.2222 13.3978 29.2222 13.3978C29.2222 13.3978 29.2222 8.72384 28.6279 6.48364ZM12.0909 17.6414V9.1542L19.5252 13.3979L12.0909 17.6414Z" fill="#F4F4F4"/>
</svg>
